<?xml version="1.0" standalone="no"?>
<!DOCTYPE svg PUBLIC "-//W3C//DTD SVG 20010904//EN"
 "http://www.w3.org/TR/2001/REC-SVG-20010904/DTD/svg10.dtd">
<svg version="1.0" xmlns="http://www.w3.org/2000/svg"
 width="2134.000000pt" height="2134.000000pt" viewBox="0 0 2134.000000 2134.000000"
 preserveAspectRatio="xMidYMid meet">
<metadata>
Created by potrace 1.11, written by Peter Selinger 2001-2013
</metadata>
<g transform="translate(0.000000,2134.000000) scale(0.100000,-0.100000)"
fill="#000000" stroke="none">
<path d="M10100 21319 c-1473 -82 -2865 -448 -4171 -1095 -1318 -653 -2494
-1580 -3444 -2714 -1180 -1409 -1967 -3078 -2305 -4886 -201 -1078 -233 -2216
-94 -3309 300 -2351 1361 -4511 3039 -6190 1679 -1678 3839 -2739 6190 -3039
724 -92 1500 -110 2220 -50 3271 271 6207 2004 8020 4734 995 1499 1590 3206
1740 4995 26 316 35 541 35 900 0 496 -23 873 -81 1335 -345 2756 -1738 5242
-3921 6997 -1047 842 -2267 1485 -3568 1880 -820 248 -1664 394 -2560 443
-213 12 -886 11 -1100 -1z m9100 -5379 l0 -500 -1000 0 -1000 0 0 -1000 0
-1000 500 0 500 0 0 -1000 0 -1000 -1500 0 -1500 0 0 1000 0 1000 500 0 500 0
-2 998 -3 997 -2512 3 -2513 2 0 -2000 0 -2000 500 0 500 0 0 -1000 0 -1000
-1505 0 -1505 0 0 1000 0 1000 500 0 500 0 0 2000 0 2000 -2495 0 -2495 0 0
-1000 0 -1000 500 0 500 0 0 -1000 0 -1000 -1505 0 -1505 0 0 1000 0 1000 500
0 500 0 0 1000 0 1000 -1015 0 -1015 0 0 500 0 500 8535 0 8535 0 0 -500z
m-253 -5250 c52 -104 101 -220 133 -317 163 -496 160 -899 -11 -1758 -222
-1116 -611 -2169 -1046 -2834 -287 -439 -594 -724 -918 -850 -145 -57 -244
-76 -405 -76 -161 0 -260 19 -405 76 -372 145 -731 509 -1050 1064 -82 142
-251 486 -325 661 -244 579 -452 1270 -589 1959 -171 858 -174 1264 -11 1756
43 130 161 398 206 467 l14 22 2163 -2 2162 -3 82 -165z m-12080 -107 c151
-271 262 -635 294 -963 52 -548 -203 -1810 -567 -2797 -589 -1601 -1372 -2362
-2205 -2143 -628 165 -1213 922 -1678 2173 -304 817 -549 1874 -578 2487 -17
380 90 791 315 1208 l55 102 2163 0 2163 0 38 -67z m6039 -2000 c204 -406 290
-831 255 -1263 -28 -338 -124 -882 -235 -1325 -285 -1133 -679 -2042 -1134
-2615 -106 -133 -300 -323 -412 -402 -180 -128 -377 -214 -549 -239 -128 -18
-333 -7 -451 25 -767 209 -1474 1336 -1935 3086 -143 541 -249 1120 -275 1508
-29 440 72 891 292 1299 l40 73 2166 -2 2167 -3 71 -142z"/>
</g>
</svg>
